# xmcd
#
# Track frame offsets:
#	150
#	14625
#	31991
#	47127
#	59677
#	76397
#	92524
#	103547
#	119988
#	137957
#	152130
#	170875
#	186263
#	199155
#	211904
#	229057
#	243529
#	257541
#	271561
#	285956
#
# Disc length: 4029 seconds
#
# Revision: 0
# Processed by: cddbd v1.5.2PL0 Copyright (c) Steve Scherf et al.
# Submitted via: EasyCDDAExtractor 10.0.3.1
#
DISCID=240fbb14
DTITLE=Various Artist - MAGIC NEWS 127
DYEAR=1900
DGENRE=
TTITLE0=BOOTY LUV - Boogie 2nite - SEAMUS HAJI BIG LOVE EDIT
TTITLE1=TIESTO feat. CHRISTIAN BURNS - In The Dark - RADIO EDIT
TTITLE2=DJ BOBO - Vampires Are Alive - RADIO VERSION
TTITLE3=MICHAEL MIND feat. MANFRED MANN'S EARTH BAND - Blinded By The Light - 
TTITLE3=RADIO EDIT
TTITLE4=SCOOTER - Lass Uns Tanzen - RADIO EDIT
TTITLE5=STEREOLIZA - When You're Here
TTITLE6=CAMILLE JONES vs. FEDDE LE GRAND - The Creeps - RADIO EDIT
TTITLE7=GIULIA SIEGEL - Dance! - RADIO EDIT
TTITLE8=MILK INC. - No Angel - RADIO EDIT
TTITLE9=J-STATUS feat. RIHANNA - Roll It - RADIO EDIT
TTITLE10=BEATS AND STYLES feat. MICHAEL MONROE - Ocean Wave - RADIO EDIT
TTITLE11=TOPMODELZ - Your Love - LIMELIGHT EDIT
TTITLE12=K.A.S.A. - Znana
TTITLE13=DADA feat. SANDY RIVERA and TRIX - Lollipop - RADIO EDIT
TTITLE14=AGE PEE - Hymn - RADIO VERSION
TTITLE15=2-4 GROOVES - The Way I Do - ORIGINAL RADIO EDIT
TTITLE16=LAZARD - Your Heart Keeps Burning - STEFANO SORRENTINO RADIO EDIT
TTITLE17=ALIBI vs. ROCKEFELLER - Sexual Healing - FREEMASONS RADIO
TTITLE18=BARACUDA - Ladida - GROOVE COVERAGE REMIX EDIT
TTITLE19=MELANIE FLASH - Halfway To Heaven - ORIGINAL MIX SHORT
EXTD=
EXTT0=
EXTT1=
EXTT2=
EXTT3=
EXTT4=
EXTT5=
EXTT6=
EXTT7=
EXTT8=
EXTT9=
EXTT10=
EXTT11=
EXTT12=
EXTT13=
EXTT14=
EXTT15=
EXTT16=
EXTT17=
EXTT18=
EXTT19=
PLAYORDER=
